<?xml version="1.0" encoding="UTF-8"?>
<svg version="1.1" xmlns="http://www.w3.org/2000/svg" width="512" height="512">
<path d="M0 0 C4.25220125 1.80111519 8.08526651 4.12475387 12 6.5625 C13.72263516 7.59608109 15.4452912 8.62962929 17.16918945 9.66110229 C18.94753186 10.72867859 20.72014767 11.80530177 22.4921875 12.88330078 C27.93885287 16.18502211 33.47395273 19.3336857 39 22.5 C41.16707357 23.74929444 43.33373933 24.99929653 45.5 26.25 C47.10875 27.178125 47.10875 27.178125 48.75 28.125 C66.625 38.4375 66.625 38.4375 84.5 48.75 C85.57266113 49.36883057 86.64532227 49.98766113 87.75048828 50.62524414 C89.91557071 51.87435518 92.08060982 53.12354129 94.24560547 54.37280273 C99.68615706 57.51202309 105.12747216 60.64990563 110.5703125 63.78515625 C121.02206199 69.80747329 131.46299548 75.84669337 141.875 81.9375 C150.55262426 87.01275231 159.26612314 92.02246707 168 97 C177.06580621 102.16714738 186.11181294 107.36636514 195.125 112.625 C196.07761719 113.18058594 197.03023438 113.73617187 198.01171875 114.30859375 C199.80749127 115.35846929 201.59965799 116.41454324 203.38769531 117.47753906 C205.16863631 118.51547814 206.97164327 119.51623859 208.79199219 120.48339844 C209.68305664 120.97098633 210.57412109 121.45857422 211.4921875 121.9609375 C212.28737793 122.37907715 213.08256836 122.7972168 213.90185547 123.22802734 C217.34428354 126.13530485 218.74142202 129.87413185 219.2755897 134.265728 C219.38598029 136.91808272 219.39985418 139.55510551 219.38095093 142.2097168 C219.3856309 143.2234798 219.39031087 144.23724279 219.39513266 145.28172588 C219.4070771 148.67102414 219.39762733 152.05991765 219.38818359 155.44921875 C219.39224952 157.88221472 219.39759152 160.31520884 219.40411377 162.74819946 C219.41637066 168.66589582 219.41458019 174.58348746 219.40587585 180.50118089 C219.39909369 185.31169969 219.39818488 190.12218652 219.4014473 194.93270874 C219.401907 195.61802884 219.40236669 196.30334894 219.40284032 197.00943631 C219.40379952 198.40176146 219.40477216 199.7940866 219.4057581 201.18641174 C219.41430753 214.23447192 219.40448489 227.28246881 219.388357 240.3305186 C219.37495421 251.52018211 219.37728243 262.70975224 219.39111328 273.89941406 C219.40717701 286.90159167 219.4134836 299.90371385 219.40427649 312.9059 C219.40332087 314.29303041 219.40237776 315.68016083 219.4014473 317.06729126 C219.40098447 317.74974071 219.40052164 318.43219015 219.40004479 319.13531989 C219.39745728 323.93864601 219.40182075 328.7419369 219.40888596 333.54525757 C219.41819067 340.01313582 219.41154192 346.48087931 219.39420319 352.94874191 C219.39023589 355.32271405 219.39137651 357.69670103 219.39799118 360.07066727 C219.40618686 363.31073974 219.39590835 366.55024677 219.38095093 369.7902832 C219.38764309 370.73007365 219.39433526 371.6698641 219.40123022 372.63813305 C219.35155045 378.18511743 218.65198867 382.09440822 216 387 C213.86889648 388.84179688 213.86889648 388.84179688 211.37109375 390.21875 C210.43217285 390.75040771 209.49325195 391.28206543 208.52587891 391.82983398 C207.50671387 392.38098877 206.48754883 392.93214355 205.4375 393.5 C203.2459973 394.73029696 201.05459439 395.9607717 198.86328125 397.19140625 C197.72842285 397.81934082 196.59356445 398.44727539 195.42431641 399.09423828 C189.9514983 402.14006875 184.54242604 405.29457837 179.125 408.4375 C176.94056146 409.69740777 174.75566288 410.95651825 172.5703125 412.21484375 C166.04513757 415.97355381 159.5223655 419.7364175 153 423.5 C150.83334417 424.75001879 148.6666775 426.00001878 146.5 427.25 C145.4275 427.86875 144.355 428.4875 143.25 429.125 C55.5 479.75 55.5 479.75 52.24609375 481.62719727 C50.0923828 482.86976019 47.93873633 484.11243489 45.78515625 485.35522461 C40.76315738 488.25314623 35.74057193 491.15003349 30.71557617 494.04275513 C28.94954478 495.05947198 27.18372569 496.07655658 25.41796875 497.09375 C23.21265845 498.36400873 21.00695784 499.63359018 18.80078125 500.90234375 C17.79402344 501.48242188 16.78726563 502.0625 15.75 502.66015625 C14.77804687 503.21461426 13.80609375 503.76907227 12.8046875 504.34033203 C10.96500217 505.42896198 9.15506261 506.56985983 7.3828125 507.76513672 C2.48693286 511.02238375 -1.40415293 513.02235783 -7.3828125 512.61376953 C-12.81119705 511.34073233 -17.31159611 508.35710673 -22 505.4375 C-23.72052456 504.40496377 -25.4410704 503.37246105 -27.16287231 502.34205627 C-28.94035934 501.27484256 -30.7121314 500.19859298 -32.48339844 499.12109375 C-37.97295382 495.79413635 -43.55450449 492.62627905 -49.125 489.4375 C-57.39237351 484.67532477 -65.63974187 479.87995515 -73.875 475.0625 C-82.55262241 469.98724877 -91.26605568 464.97741233 -100 460 C-109.72115617 454.4599827 -119.40894658 448.86625191 -129.06689453 443.21655273 C-139.59084625 437.06233258 -150.15380137 430.97630004 -160.71777344 424.89111328 C-167.21847963 421.14561565 -173.71625032 417.39502735 -180.21435547 413.64501953 C-185.23653702 410.74705111 -190.25927066 407.85005713 -195.28442383 404.95724487 C-197.05045522 403.94052802 -198.81627431 402.92344342 -200.58203125 401.90625 C-202.78734155 400.63599127 -204.99304216 399.36640982 -207.19921875 398.09765625 C-209.19259526 396.94910385 -211.18235872 395.79425164 -213.16796875 394.63232422 C-215.04775875 393.54885215 -216.94662529 392.49779139 -218.86328125 391.48095703 C-219.75402344 390.99353027 -220.64476562 390.50610352 -221.5625 390.00390625 C-222.34753906 389.59084229 -223.13257813 389.17777832 -223.94140625 388.75219727 C-227.35289942 385.8484631 -228.74437703 382.10046799 -229.2757442 377.73419476 C-229.38596945 375.08187609 -229.39985388 372.44485184 -229.38095093 369.7902832 C-229.3856309 368.7765202 -229.39031087 367.76275721 -229.39513266 366.71827412 C-229.4070771 363.32897586 -229.39762733 359.94008235 -229.38818359 356.55078125 C-229.39224952 354.11778528 -229.39759152 351.68479116 -229.40411377 349.25180054 C-229.41637066 343.33410418 -229.41458019 337.41651254 -229.40587585 331.49881911 C-229.39909369 326.68830031 -229.39818488 321.87781348 -229.4014473 317.06729126 C-229.401907 316.38197116 -229.40236669 315.69665106 -229.40284032 314.99056369 C-229.40379952 313.59823854 -229.40477216 312.2059134 -229.4057581 310.81358826 C-229.41430753 297.76552808 -229.40448489 284.71753119 -229.388357 271.6694814 C-229.37495421 260.47981789 -229.37728243 249.29024776 -229.39111328 238.10058594 C-229.40717701 225.09840833 -229.4134836 212.09628615 -229.40427649 199.0941 C-229.40332087 197.70696959 -229.40237776 196.31983917 -229.4014473 194.93270874 C-229.40098447 194.25025929 -229.40052164 193.56780985 -229.40004479 192.86468011 C-229.39745728 188.06135399 -229.40182075 183.2580631 -229.40888596 178.45474243 C-229.41819067 171.98686418 -229.41154192 165.51912069 -229.39420319 159.05125809 C-229.39023589 156.67728595 -229.39137651 154.30329897 -229.39799118 151.92933273 C-229.40618686 148.68926026 -229.39590835 145.44975323 -229.38095093 142.2097168 C-229.38764309 141.26992635 -229.39433526 140.3301359 -229.40123022 139.36186695 C-229.35155045 133.81488257 -228.65198867 129.90559178 -226 125 C-223.86889648 123.15820313 -223.86889648 123.15820313 -221.37109375 121.78125 C-220.43217285 121.24959229 -219.49325195 120.71793457 -218.52587891 120.17016602 C-217.50671387 119.61901123 -216.48754883 119.06785645 -215.4375 118.5 C-213.2459973 117.26970304 -211.05459439 116.0392283 -208.86328125 114.80859375 C-207.72842285 114.18065918 -206.59356445 113.55272461 -205.42431641 112.90576172 C-199.9514983 109.85993125 -194.54242604 106.70542163 -189.125 103.5625 C-186.94056146 102.30259223 -184.75566288 101.04348175 -182.5703125 99.78515625 C-176.04513757 96.02644619 -169.5223655 92.2635825 -163 88.5 C-160.83334417 87.24998121 -158.6666775 85.99998122 -156.5 84.75 C-155.4275 84.13125 -154.355 83.5125 -153.25 82.875 C-65.5 32.25 -65.5 32.25 -62.24609375 30.37280273 C-60.0923828 29.13023981 -57.93873633 27.88756511 -55.78515625 26.64477539 C-50.76315738 23.74685377 -45.74057193 20.84996651 -40.71557617 17.95724487 C-38.94954478 16.94052802 -37.18372569 15.92344342 -35.41796875 14.90625 C-33.21265845 13.63599127 -31.00695784 12.36640982 -28.80078125 11.09765625 C-27.79402344 10.51757812 -26.78726563 9.9375 -25.75 9.33984375 C-24.29207031 8.50815674 -24.29207031 8.50815674 -22.8046875 7.65966797 C-20.96500217 6.57103802 -19.15506261 5.43014017 -17.3828125 4.23486328 C-11.5811294 0.37498183 -6.98201429 -1.63738656 0 0 Z " fill="#010101" transform="translate(261,0)"/>
<path d="M0 0 C-1.62837969 6.18161973 -4.94236349 11.31098703 -8.1875 16.75 C-9.45381802 18.89542443 -10.7194174 21.04127317 -11.984375 23.1875 C-12.64244141 24.30125 -13.30050781 25.415 -13.97851562 26.5625 C-17.33515388 32.27040659 -20.63548826 38.01034259 -23.9375 43.75 C-25.13381784 45.82829584 -26.33042287 47.9064264 -27.52734375 49.984375 C-28.37594971 51.4684082 -28.37594971 51.4684082 -29.24169922 52.98242188 C-30.46360831 55.07944997 -31.71778874 57.157871 -32.99658203 59.22070312 C-33.95927002 60.78981445 -33.95927002 60.78981445 -34.94140625 62.390625 C-35.52736572 63.32422852 -36.1133252 64.25783203 -36.71704102 65.21972656 C-38.49384149 69.0701935 -38.62799825 72.26092792 -37.1875 76.25 C-35.95585872 78.30173167 -35.95585872 78.30173167 -33 80 C-27.40466012 80.79249241 -27.40466012 80.79249241 -22.671875 78.203125 C-18.65523901 73.85291958 -16.00176186 68.44244273 -13.125 63.3125 C-12.13127579 61.56514519 -11.1375392 59.81779727 -10.14305115 58.07087708 C-9.1122829 56.25794079 -8.08494776 54.44309202 -7.05810547 52.62792969 C-1.99909556 43.69597494 3.16492713 34.82360374 8.3046875 25.93798828 C9.9081049 23.15925484 11.50183473 20.37517727 13.09375 17.58984375 C13.99967129 16.01803966 14.90589721 14.4464111 15.8125 12.875 C16.4163855 11.8085022 16.4163855 11.8085022 17.0324707 10.72045898 C17.96552841 9.11305967 18.97453059 7.55007797 20 6 C20.66 6 21.32 6 22 6 C70.75 90.5 70.75 90.5 72.62524414 93.75048828 C73.87435518 95.91557071 75.12354129 98.08060982 76.37280273 100.24560547 C79.51202309 105.68615706 82.64990563 111.12747216 85.78515625 116.5703125 C91.80747329 127.02206199 97.84669337 137.46299548 103.9375 147.875 C109.35647818 157.14032389 114.69675887 166.44887288 120.01116943 175.77435303 C125.88248775 186.07449354 131.82790831 196.33001148 137.81640625 206.5625 C138.3283252 207.43777344 138.84024414 208.31304687 139.36767578 209.21484375 C140.56077468 211.25057097 141.75758157 213.28412628 142.95654297 215.31640625 C143.59865723 216.40824219 144.24077148 217.50007812 144.90234375 218.625 C145.78974243 220.12933594 145.78974243 220.12933594 146.69506836 221.6640625 C148 224 148 224 148 225 C64.51 225 -18.98 225 -105 225 C-103.90355403 220.61421613 -102.01643521 217.14337631 -99.8125 213.25 C-99.15254028 212.0734082 -99.15254028 212.0734082 -98.47924805 210.87304688 C-94.81921395 204.37921419 -91.07129626 197.93701122 -87.3125 191.5 C-86.73330811 190.50516602 -86.15411621 189.51033203 -85.55737305 188.48535156 C-82.6815146 183.55396791 -79.78804057 178.63514259 -76.83946228 173.74694824 C-75.43076053 171.40572166 -74.0359083 169.05640875 -72.64291382 166.70581055 C-71.64842854 165.03926133 -70.63557079 163.38371919 -69.62231445 161.72851562 C-66.13934637 155.83219252 -64.0457602 151.88304116 -65 145 C-65.66798742 141.85789795 -65.66798742 141.85789795 -68.1875 140.8125 C-71.3983153 139.88493114 -73.67472018 139.58434002 -77 140 C-82.57816484 143.32996687 -84.94975175 148.71563519 -87.9375 154.25 C-89.0882285 156.33422595 -90.24062686 158.41753066 -91.39453125 160.5 C-92.28325928 162.11068359 -92.28325928 162.11068359 -93.18994141 163.75390625 C-96.65765081 169.97277114 -100.27785017 176.10252857 -103.8815918 182.24316406 C-106.70416997 187.05691252 -109.50850544 191.87832564 -112.2578125 196.734375 C-112.76425293 197.62479492 -113.27069336 198.51521484 -113.79248047 199.43261719 C-114.74296709 201.10687469 -115.68759707 202.7844747 -116.62548828 204.46582031 C-117.69465471 206.34336074 -118.83946036 208.17752294 -120 210 C-120.66 210 -121.32 210 -122 210 C-122.17970526 209.44821736 -122.35941051 208.89643473 -122.54456139 208.3279314 C-131.70025681 180.2226379 -140.92166952 152.14088293 -150.2890625 124.10546875 C-150.7183071 122.82046878 -151.14754446 121.53546638 -151.5767746 120.25046158 C-155.26364124 109.2138083 -158.95432361 98.17843156 -162.64783227 87.1439994 C-165.05649034 79.9480333 -167.46245734 72.75117535 -169.86579514 65.55343056 C-170.6852252 63.10133385 -171.50579246 60.64961684 -172.32753372 58.19829369 C-173.45623148 54.83124779 -174.58132034 51.46301684 -175.70556641 48.09448242 C-176.0419664 47.09404404 -176.37836639 46.09360565 -176.72496033 45.06285095 C-177.02709946 44.15512939 -177.32923859 43.24740784 -177.64053345 42.31217957 C-177.90475412 41.52265994 -178.1689748 40.73314032 -178.44120216 39.91969585 C-179 38 -179 38 -179 36 C-178.2064209 35.84442627 -177.4128418 35.68885254 -176.59521484 35.52856445 C-157.27953034 31.74729472 -157.27953034 31.74729472 -138.0625 27.5 C-129.39317501 25.47473871 -120.6819019 23.73129637 -111.9375 22.0625 C-98.20587843 19.44187029 -84.51386565 16.65543706 -70.82958984 13.79736328 C-62.46283399 12.05531148 -54.09057403 10.33978861 -45.71899414 8.62109375 C-38.65577153 7.17007836 -31.59515321 5.70799134 -24.5390625 4.22265625 C-23.19142796 3.94000065 -21.84377214 3.65744646 -20.49609375 3.375 C-17.97456329 2.84575849 -15.45369178 2.3133646 -12.93359375 1.77734375 C-11.81339844 1.54273437 -10.69320312 1.308125 -9.5390625 1.06640625 C-8.56146973 0.85959229 -7.58387695 0.65277832 -6.57666016 0.43969727 C-4 0 -4 0 0 0 Z " fill="#DFEE9A" transform="translate(235,104)"/>
<path d="M0 0 C-1.62837969 6.18161973 -4.94236349 11.31098703 -8.1875 16.75 C-9.45381802 18.89542443 -10.7194174 21.04127317 -11.984375 23.1875 C-12.64244141 24.30125 -13.30050781 25.415 -13.97851562 26.5625 C-17.33515388 32.27040659 -20.63548826 38.01034259 -23.9375 43.75 C-25.13381784 45.82829584 -26.33042287 47.9064264 -27.52734375 49.984375 C-28.37594971 51.4684082 -28.37594971 51.4684082 -29.24169922 52.98242188 C-30.46360831 55.07944997 -31.71778874 57.157871 -32.99658203 59.22070312 C-33.95927002 60.78981445 -33.95927002 60.78981445 -34.94140625 62.390625 C-35.52736572 63.32422852 -36.1133252 64.25783203 -36.71704102 65.21972656 C-38.18849393 68.40848122 -38.30567933 70.52612283 -38 74 C-36.79255056 77.20476624 -36.79255056 77.20476624 -34 79 C-35.11421372 82.16312895 -36.5219657 84.97845981 -38.234375 87.84765625 C-38.84732422 88.87922852 -38.84732422 88.87922852 -39.47265625 89.93164062 C-40.33009182 91.36201096 -41.19745209 92.78647484 -42.07421875 94.20507812 C-42.47769531 94.89150391 -42.88117188 95.57792969 -43.296875 96.28515625 C-43.67166992 96.90269775 -44.04646484 97.52023926 -44.43261719 98.15649414 C-45.2201996 100.04703309 -45.2201996 100.04703309 -44.23144531 102.04467773 C-43.18056814 103.713289 -42.09384381 105.35923429 -41 107 C-40.49743252 111.62362084 -41.13769308 114.3198911 -44 118 C-47.41653527 120.56240146 -50.85545001 120.23025278 -55 120 C-55.66 119.67 -56.32 119.34 -57 119 C-57.2475 119.67804688 -57.495 120.35609375 -57.75 121.0546875 C-59.24191164 124.57000431 -61.08505561 127.82935295 -63 131.125 C-63.35578125 131.74503906 -63.7115625 132.36507812 -64.078125 133.00390625 C-65.64772569 135.72728058 -67.25575794 138.38363692 -69 141 C-69.66 140.67 -70.32 140.34 -71 140 C-74.39451546 139.62283162 -76.35927508 139.62051024 -79.328125 141.37890625 C-83.1737093 145.15140196 -85.3922961 149.5353836 -87.9375 154.25 C-89.0882285 156.33422595 -90.24062686 158.41753066 -91.39453125 160.5 C-92.28325928 162.11068359 -92.28325928 162.11068359 -93.18994141 163.75390625 C-96.65765081 169.97277114 -100.27785017 176.10252857 -103.8815918 182.24316406 C-106.70416997 187.05691252 -109.50850544 191.87832564 -112.2578125 196.734375 C-112.76425293 197.62479492 -113.27069336 198.51521484 -113.79248047 199.43261719 C-114.74296709 201.10687469 -115.68759707 202.7844747 -116.62548828 204.46582031 C-117.69465471 206.34336074 -118.83946036 208.17752294 -120 210 C-120.66 210 -121.32 210 -122 210 C-122.17970526 209.44821736 -122.35941051 208.89643473 -122.54456139 208.3279314 C-131.70025681 180.2226379 -140.92166952 152.14088293 -150.2890625 124.10546875 C-150.7183071 122.82046878 -151.14754446 121.53546638 -151.5767746 120.25046158 C-155.26364124 109.2138083 -158.95432361 98.17843156 -162.64783227 87.1439994 C-165.05649034 79.9480333 -167.46245734 72.75117535 -169.86579514 65.55343056 C-170.6852252 63.10133385 -171.50579246 60.64961684 -172.32753372 58.19829369 C-173.45623148 54.83124779 -174.58132034 51.46301684 -175.70556641 48.09448242 C-176.0419664 47.09404404 -176.37836639 46.09360565 -176.72496033 45.06285095 C-177.02709946 44.15512939 -177.32923859 43.24740784 -177.64053345 42.31217957 C-177.90475412 41.52265994 -178.1689748 40.73314032 -178.44120216 39.91969585 C-179 38 -179 38 -179 36 C-178.2064209 35.84442627 -177.4128418 35.68885254 -176.59521484 35.52856445 C-157.27953034 31.74729472 -157.27953034 31.74729472 -138.0625 27.5 C-129.39317501 25.47473871 -120.6819019 23.73129637 -111.9375 22.0625 C-98.20587843 19.44187029 -84.51386565 16.65543706 -70.82958984 13.79736328 C-62.46283399 12.05531148 -54.09057403 10.33978861 -45.71899414 8.62109375 C-38.65577153 7.17007836 -31.59515321 5.70799134 -24.5390625 4.22265625 C-23.19142796 3.94000065 -21.84377214 3.65744646 -20.49609375 3.375 C-17.97456329 2.84575849 -15.45369178 2.3133646 -12.93359375 1.77734375 C-11.81339844 1.54273437 -10.69320312 1.308125 -9.5390625 1.06640625 C-8.56146973 0.85959229 -7.58387695 0.65277832 -6.57666016 0.43969727 C-4 0 -4 0 0 0 Z " fill="#CAE457" transform="translate(235,104)"/>
<path d="M0 0 C80.52 0 161.04 0 244 0 C242.38306857 3.23386286 241.37050879 4.89609296 238.98828125 7.390625 C238.39877686 8.01364502 237.80927246 8.63666504 237.2019043 9.27856445 C236.57840088 9.92913818 235.95489746 10.57971191 235.3125 11.25 C234.03296904 12.60202747 232.75431233 13.95488288 231.4765625 15.30859375 C230.86844727 15.9516748 230.26033203 16.59475586 229.63378906 17.25732422 C227.23032533 19.82097098 224.92253938 22.45955956 222.62890625 25.12109375 C218.39028533 30.01024642 214.00840736 34.77592474 209.671875 39.578125 C205.68295423 44.00121401 201.72432093 48.44615005 197.8125 52.9375 C194.96852205 56.17375077 192.07387299 59.36408668 189.1875 62.5625 C187.27445851 64.69417481 185.38112388 66.8401911 183.5 69 C180.10746907 72.89512811 176.64805799 76.72782763 173.1875 80.5625 C171.27445851 82.69417481 169.38112388 84.8401911 167.5 87 C164.10746907 90.89512811 160.64805799 94.72782763 157.1875 98.5625 C155.27445851 100.69417481 153.38112388 102.8401911 151.5 105 C148.10746907 108.89512811 144.64805799 112.72782763 141.1875 116.5625 C138.71175479 119.32118752 136.27417113 122.11106939 133.83984375 124.90625 C130.26630337 128.97295412 126.6297047 132.98345603 123 137 C120.10368126 135.69983484 118.14805694 134.36489577 116.01171875 132.0234375 C115.47385742 131.43916992 114.93599609 130.85490234 114.38183594 130.25292969 C113.82270508 129.63321289 113.26357422 129.01349609 112.6875 128.375 C112.10645508 127.73981445 111.52541016 127.10462891 110.92675781 126.45019531 C107.46019845 122.64960333 104.03335351 118.81586496 100.671875 114.921875 C98.64241927 112.58894926 96.572353 110.29488755 94.5 108 C91.23609152 104.38323655 88.01209051 100.73610392 84.8125 97.0625 C82.72788836 94.69035571 80.61571356 92.34443935 78.5 90 C75.23609152 86.38323655 72.01209051 82.73610392 68.8125 79.0625 C66.72788836 76.69035571 64.61571356 74.34443935 62.5 72 C59.23609152 68.38323655 56.01209051 64.73610392 52.8125 61.0625 C50.72788836 58.69035571 48.61571356 56.34443935 46.5 54 C43.81016569 51.01937279 41.13689636 48.02754767 38.5 45 C34.38918961 40.28298716 30.19332155 35.64361111 26 31 C21.23891293 25.72765526 16.49150446 20.44795467 11.8359375 15.08203125 C10.44202754 13.50127804 9.02663137 11.93944036 7.6015625 10.38671875 C6.78429687 9.49597656 5.96703125 8.60523438 5.125 7.6875 C4.36445313 6.86636719 3.60390625 6.04523438 2.8203125 5.19921875 C1 3 1 3 0 0 Z " fill="#C9E257" transform="translate(134,349)"/>
<path d="M0 0 C8.87277329 0.57209204 17.45101639 2.41170899 26.125 4.25 C27.65118402 4.56941578 29.17747118 4.88833912 30.70385742 5.20678711 C33.74147206 5.84131696 36.77848836 6.47858707 39.81494141 7.11865234 C44.3682797 8.07839497 48.92393664 9.02682404 53.47998047 9.97363281 C56.32682876 10.56547888 59.17321048 11.15952893 62.01953125 11.75390625 C68.84461861 13.17766376 75.67231514 14.58876065 82.5 16 C91.23082925 17.80460727 99.96031754 19.61534102 108.6875 21.4375 C119.18486347 23.62862771 129.68806451 25.7909758 140.19192505 27.95068359 C153.13257455 30.61168638 166.06833811 33.29562398 179 36 C178.29629085 39.99548883 177.17334122 43.72422078 175.8878479 47.57023621 C175.6726819 48.2167375 175.4575159 48.86323879 175.23582971 49.52933103 C174.51634755 51.68872771 173.79259269 53.84666736 173.06884766 56.00463867 C172.55114453 57.555546 172.03371053 59.10654319 171.51652527 60.65762329 C170.40296046 63.99538611 169.28750547 67.33250907 168.17058182 70.6691494 C166.40237975 75.95145968 164.63844777 81.2351897 162.87509155 86.51911926 C160.0831119 94.88367688 157.28833183 103.24729565 154.492329 111.61050922 C149.49174104 126.56799327 144.49444549 141.52657657 139.50034177 156.48622686 C137.7490609 161.73169256 135.99609614 166.97659153 134.24174905 172.2210325 C133.1470052 175.49456495 132.05350674 178.76851247 130.96030617 182.04256058 C130.45576439 183.55273689 129.95070036 185.06273884 129.44505501 186.57254601 C126.84177148 194.34652217 124.27929882 202.12358075 122 210 C121.34 210 120.68 210 120 210 C88.75 155.83333333 57.5 101.66666667 26.25 47.5 C25.6300415 46.42556641 25.01008301 45.35113281 24.37133789 44.24414062 C23.13298021 42.09733086 21.8951787 39.95020016 20.65795898 37.80273438 C17.71652804 32.69881776 14.76926228 27.59851866 11.80252075 22.50927734 C10.39302963 20.09061686 8.98667235 17.67014138 7.58056641 15.24951172 C6.58021318 13.53043948 5.57530266 11.8140218 4.5703125 10.09765625 C3.97089844 9.06511719 3.37148438 8.03257813 2.75390625 6.96875 C2.22095947 6.05544922 1.6880127 5.14214844 1.13891602 4.20117188 C0 2 0 2 0 0 Z " fill="#CAE457" transform="translate(277,104)"/>
<path d="M0 0 C2.0207651 3.03114765 2.971743 5.54725558 4.11621094 8.9921875 C4.73964386 10.85804504 4.73964386 10.85804504 5.37567139 12.76159668 C5.82868623 14.13269358 6.28158398 15.50382917 6.734375 16.875 C7.20888783 18.30126762 7.68376914 19.72741271 8.15899658 21.15344238 C9.43153336 24.97606076 10.69829302 28.80057032 11.96380615 32.6255188 C13.01128003 35.7891241 14.06210011 38.95161352 15.11290741 42.11411285 C21.66714844 61.8416987 28.17843481 81.58335846 34.57324219 101.36328125 C34.82225281 102.13285156 35.07126343 102.90242188 35.32781982 103.6953125 C35.80904819 105.18445381 36.28895662 106.67402247 36.76739502 108.1640625 C38.11710584 112.34968778 39.51726345 116.51373727 40.9609375 120.66796875 C41.45388306 122.10082214 41.45388306 122.10082214 41.95678711 123.56262207 C42.59717573 125.41946211 43.24606363 127.27339872 43.90454102 129.12390137 C44.19256592 129.96279907 44.48059082 130.80169678 44.77734375 131.66601562 C45.03765381 132.40710571 45.29796387 133.1481958 45.56616211 133.91174316 C46.06837476 136.32911847 45.88212284 137.70550324 45 140 C42.98486328 141.56469727 42.98486328 141.56469727 40.3203125 143.06640625 C39.33691895 143.62956543 38.35352539 144.19272461 37.34033203 144.77294922 C36.27927246 145.36350098 35.21821289 145.95405273 34.125 146.5625 C31.93746018 147.80591953 29.74996073 149.04941009 27.5625 150.29296875 C26.46292969 150.91220215 25.36335938 151.53143555 24.23046875 152.16943359 C21.22090388 153.87482336 18.23159557 155.60955525 15.25 157.36328125 C14.38101074 157.87366943 13.51202148 158.38405762 12.61669922 158.90991211 C10.98185797 159.87117826 9.34803246 160.83417443 7.71533203 161.79907227 C2.22438372 165 2.22438372 165 0 165 C0 110.55 0 56.1 0 0 Z " fill="#DDEC99" transform="translate(53,196)"/>
<path d="M0 0 C0.33 0 0.66 0 1 0 C1 54.45 1 108.9 1 165 C-2.10806627 163.75677349 -4.78547414 162.66264603 -7.65234375 161.07421875 C-8.67823608 160.50695068 -8.67823608 160.50695068 -9.72485352 159.92822266 C-13.82311194 157.63015918 -17.91466923 155.32097763 -22 153 C-22.98129883 152.44683105 -23.96259766 151.89366211 -24.97363281 151.32373047 C-28.01177706 149.6052771 -31.03826004 147.86778654 -34.0625 146.125 C-35.03243896 145.57803467 -36.00237793 145.03106934 -37.00170898 144.4675293 C-38.34857788 143.68309448 -38.34857788 143.68309448 -39.72265625 142.8828125 C-40.52453369 142.42277832 -41.32641113 141.96274414 -42.15258789 141.48876953 C-44.42139376 139.66041243 -44.61901708 138.85209792 -45 136 C-44.4931488 133.64439392 -44.4931488 133.64439392 -43.59155273 130.99584961 C-43.25574188 129.99213318 -42.91993103 128.98841675 -42.57394409 127.95428467 C-42.19762848 126.86464417 -41.82131287 125.77500366 -41.43359375 124.65234375 C-40.85582687 122.9380014 -40.85582687 122.9380014 -40.26638794 121.18902588 C-39.21749814 118.08153184 -38.15968303 114.97724765 -37.09825516 111.87401962 C-35.99161857 108.63072527 -34.89711092 105.38335193 -33.80249023 102.13598633 C-33.36061912 100.82542144 -32.91873984 99.51485931 -32.47685242 98.20429993 C-32.25793524 97.55495295 -32.03901806 96.90560596 -31.81346703 96.2365818 C-31.14655582 94.26004823 -30.47827714 92.28398172 -29.80964661 90.30802917 C-25.97260109 78.96280685 -22.24660154 67.58321632 -18.5625 56.1875 C-12.48427629 37.42155038 -6.27175472 18.70208703 0 0 Z " fill="#DDEC99" transform="translate(458,196)"/>
<path d="M0 0 C0 17.49 0 34.98 0 53 C-7.93395181 54.98348795 -15.73036277 56.77934108 -23.75 58.25 C-33.77193855 60.12952374 -43.73556382 62.22118718 -53.6875 64.4375 C-64.18012433 66.77263745 -74.68562678 68.94447872 -85.25 70.9375 C-98.62157258 73.46063427 -111.89381447 76.35204635 -125.16113281 79.37280273 C-126.26748077 79.62339951 -126.26748077 79.62339951 -127.3961792 79.87905884 C-129.39557771 80.33251151 -131.39411095 80.78977464 -133.39257812 81.24731445 C-136.92955328 81.98530135 -140.41980789 82.53057526 -144 83 C-140.90927608 79.6995965 -137.25824262 77.80662112 -133.3125 75.6875 C-125.971846 71.67757779 -118.71597126 67.54257252 -111.5 63.3125 C-103.05746593 58.36805963 -94.60196272 53.44771296 -86.125 48.5625 C-85.04541016 47.94028564 -83.96582031 47.31807129 -82.85351562 46.67700195 C-80.6631748 45.41488483 -78.47274498 44.15292215 -76.28222656 42.89111328 C-70.85340059 39.76319852 -65.42680025 36.63142753 -60 33.5 C-53.41827123 29.70260037 -46.83635928 25.90551907 -40.25390625 22.109375 C-39.14337891 21.4687915 -38.03285156 20.82820801 -36.88867188 20.16821289 C-34.69626926 18.90384799 -32.50356786 17.64000103 -30.31054688 16.37670898 C-25.26933721 13.47120517 -20.23418434 10.55642826 -15.21484375 7.61328125 C-14.32917725 7.09540039 -13.44351074 6.57751953 -12.53100586 6.04394531 C-10.88774342 5.08211292 -9.24650284 4.11681477 -7.60766602 3.14746094 C-2.22318174 0 -2.22318174 0 0 0 Z " fill="#DDEC99" transform="translate(246,28)"/>
<path d="M0 0 C2.97599361 0.82212425 5.20823916 1.98375824 7.86083984 3.56005859 C8.84181641 4.13788086 9.82279297 4.71570313 10.83349609 5.31103516 C11.86861328 5.93075195 12.90373047 6.55046875 13.97021484 7.18896484 C16.12122459 8.46375829 18.27226649 9.73849748 20.42333984 11.01318359 C21.48488281 11.64530762 22.54642578 12.27743164 23.64013672 12.92871094 C26.441037 14.58625069 29.25479873 16.21711164 32.07958984 17.83349609 C33.26633301 18.51617554 33.26633301 18.51617554 34.47705078 19.21264648 C35.94616355 20.05673076 37.41808158 20.89595558 38.89306641 21.72973633 C40.53558027 22.68143302 42.13412651 23.70843936 43.72021484 24.75146484 C43.72021484 25.41146484 43.72021484 26.07146484 43.72021484 26.75146484 C43.05828125 27.13254395 42.39634766 27.51362305 41.71435547 27.90625 C29.69919703 34.82550934 17.69085421 41.75536262 5.72021484 48.75146484 C-5.8270003 55.49861258 -17.40880645 62.1848586 -28.99755859 68.86035156 C-35.50054787 72.60716463 -42.00086093 76.35862115 -48.50073242 80.11083984 C-53.49395985 82.99281154 -58.48835104 85.872674 -63.48806763 88.74337769 C-66.35683215 90.39070325 -69.22453042 92.03988219 -72.09228516 93.68896484 C-73.72520508 94.62675781 -73.72520508 94.62675781 -75.39111328 95.58349609 C-82.08509651 99.44174741 -88.68313883 103.40582594 -95.15478516 107.62646484 C-95.85603516 107.99771484 -96.55728516 108.36896484 -97.27978516 108.75146484 C-97.93978516 108.42146484 -98.59978516 108.09146484 -99.27978516 107.75146484 C-98.85568359 107.33896484 -98.43158203 106.92646484 -97.99462891 106.50146484 C-94.21004514 102.77510545 -90.63127208 98.9402961 -87.16259766 94.91943359 C-85.06403196 92.50303533 -82.92538815 90.1261746 -80.77978516 87.75146484 C-78.08995085 84.77083764 -75.41668152 81.77901252 -72.77978516 78.75146484 C-69.38725422 74.85633674 -65.92784315 71.02363722 -62.46728516 67.18896484 C-60.55424366 65.05729004 -58.66090904 62.91127374 -56.77978516 60.75146484 C-53.38725422 56.85633674 -49.92784315 53.02363722 -46.46728516 49.18896484 C-44.55424366 47.05729004 -42.66090904 44.91127374 -40.77978516 42.75146484 C-37.38725422 38.85633674 -33.92784315 35.02363722 -30.46728516 31.18896484 C-28.55424366 29.05729004 -26.66090904 26.91127374 -24.77978516 24.75146484 C-21.39513209 20.86538169 -17.94427728 17.04114981 -14.49072266 13.21630859 C-11.8915622 10.31865798 -9.33292708 7.38782953 -6.78759766 4.44287109 C-6.29001953 3.88470703 -5.79244141 3.32654297 -5.27978516 2.75146484 C-4.82345703 2.16236328 -4.36712891 1.57326172 -3.89697266 0.96630859 C-2.27978516 -0.24853516 -2.27978516 -0.24853516 0 0 Z " fill="#DDEC99" transform="translate(404.27978515625,353.24853515625)"/>
<path d="M0 0 C4.28456404 1.42818801 7.1910008 2.51298523 10.921875 4.73046875 C11.85128906 5.27832031 12.78070313 5.82617188 13.73828125 6.390625 C14.73214844 6.98359375 15.72601563 7.5765625 16.75 8.1875 C18.91105633 9.46292098 21.072529 10.73763673 23.234375 12.01171875 C24.35005859 12.67091309 25.46574219 13.33010742 26.61523438 14.00927734 C32.05591968 17.20917261 37.52818845 20.35372894 43 23.5 C51.30852882 28.28403486 59.59993945 33.0958263 67.875 37.9375 C76.51276838 42.98847116 85.18326911 47.98011615 93.875 52.9375 C103.34262989 58.33810261 112.80442813 63.74838559 122.25 69.1875 C123.31460449 69.79907959 124.37920898 70.41065918 125.47607422 71.04077148 C131.05498563 74.25682347 136.56417134 77.54733849 142 81 C138.3418972 82.2193676 136.6069932 81.68997399 132.8515625 80.8828125 C132.22372864 80.7505426 131.59589478 80.61827271 130.94903564 80.48199463 C129.57043639 80.19078124 128.19257471 79.89606008 126.81536865 79.59832764 C123.00002031 78.77385007 119.17922241 77.975198 115.359375 77.171875 C114.5382724 76.99840546 113.7171698 76.82493591 112.8711853 76.64620972 C103.53100539 74.67792558 94.16946679 72.81824714 84.80731201 70.95785522 C70.41177908 68.09645727 56.02175567 65.21536543 41.66015625 62.1875 C37.23378652 61.25444732 32.8031453 60.34310064 28.37109375 59.4375 C26.37847352 59.02929056 24.38588964 58.62090408 22.39331055 58.2124939 C20.4962961 57.82452472 18.59874194 57.43919751 16.70117188 57.05395508 C15.54037109 56.81572021 14.37957031 56.57748535 13.18359375 56.33203125 C11.64529907 56.01842651 11.64529907 56.01842651 10.07592773 55.69848633 C6.68524471 54.92852489 3.34322471 53.95520706 0 53 C0 35.51 0 18.02 0 0 Z " fill="#DDEC99" transform="translate(266,28)"/>
<path d="M0 0 C2.27304761 1.23309119 3.81205459 2.66869059 5.60546875 4.53515625 C6.30414063 5.26089844 7.0028125 5.98664063 7.72265625 6.734375 C10.18230671 9.393582 12.58225876 12.09461047 14.9453125 14.83984375 C17.03013425 17.24642446 19.15818408 19.6103057 21.29296875 21.97265625 C24.55687723 25.5894197 27.78087824 29.23655233 30.98046875 32.91015625 C33.06508039 35.28230054 35.17725519 37.6282169 37.29296875 39.97265625 C40.55687723 43.5894197 43.78087824 47.23655233 46.98046875 50.91015625 C49.06508039 53.28230054 51.17725519 55.6282169 53.29296875 57.97265625 C56.55687723 61.5894197 59.78087824 65.23655233 62.98046875 68.91015625 C65.06508039 71.28230054 67.17725519 73.6282169 69.29296875 75.97265625 C72.55687723 79.5894197 75.78087824 83.23655233 78.98046875 86.91015625 C81.81288464 90.13325019 84.69560781 93.31074344 87.5703125 96.49609375 C90.67821976 99.95903435 93.74147067 103.45999929 96.79296875 106.97265625 C95.80296875 107.46765625 95.80296875 107.46765625 94.79296875 107.97265625 C92.59179687 106.94726562 92.59179687 106.94726562 89.82421875 105.31640625 C88.79167969 104.71376953 87.75914062 104.11113281 86.6953125 103.49023438 C85.57253906 102.82443359 84.44976562 102.15863281 83.29296875 101.47265625 C82.11768441 100.78365688 80.94189506 100.0955183 79.765625 99.40820312 C77.31833233 97.97730232 74.87327228 96.54269175 72.4296875 95.10546875 C66.90425521 91.85969876 61.34719949 88.6687988 55.79296875 85.47265625 C53.62615007 84.22291977 51.45948394 82.97291877 49.29296875 81.72265625 C48.22046875 81.10390625 47.14796875 80.48515625 46.04296875 79.84765625 C34.12630208 72.97265625 22.20963542 66.09765625 10.29296875 59.22265625 C8.68228516 58.2934436 8.68228516 58.2934436 7.0390625 57.34545898 C4.88535155 56.10289606 2.73170508 54.86022136 0.578125 53.61743164 C-4.44387387 50.71951002 -9.46645932 47.82262276 -14.49145508 44.92990112 C-16.25748647 43.91318427 -18.02330556 42.89609967 -19.7890625 41.87890625 C-21.9943728 40.60864752 -24.20007341 39.33906607 -26.40625 38.0703125 C-29.34376294 36.37776343 -32.27548433 34.67551051 -35.20703125 32.97265625 C-36.18671875 32.41336426 -37.16640625 31.85407227 -38.17578125 31.27783203 C-39.5525 30.47901611 -39.5525 30.47901611 -40.95703125 29.6640625 C-41.776875 29.19299072 -42.59671875 28.72191895 -43.44140625 28.23657227 C-44.31539063 27.61093384 -44.31539063 27.61093384 -45.20703125 26.97265625 C-45.20703125 26.31265625 -45.20703125 25.65265625 -45.20703125 24.97265625 C-44.15914429 24.3696167 -44.15914429 24.3696167 -43.09008789 23.75439453 C-40.41422114 22.21396373 -37.73894138 20.6725177 -35.06378174 19.13085938 C-33.27418162 18.10033412 -31.48357878 17.07156795 -29.69287109 16.04296875 C-24.3756647 12.9846246 -19.07024627 9.91409198 -13.8359375 6.71484375 C-13.06306396 6.24546387 -12.29019043 5.77608398 -11.49389648 5.29248047 C-10.08465007 4.43213195 -8.68143791 3.56179604 -7.28540039 2.68017578 C-2.82022042 -0.03494078 -2.82022042 -0.03494078 0 0 Z " fill="#DDEC99" transform="translate(109.20703125,353.02734375)"/>
<path d="M0 0 C2.875 2.5 2.875 2.5 5 5 C5.33 5.33 5.66 5.66 6 6 C6.42086328 10.62949609 5.86788177 13.31272343 3 17 C-0.42094119 19.56570589 -3.84773484 19.43708054 -8 19 C-10.75329021 17.20437595 -12.52627461 15.94745078 -14 13 C-14.70153846 5.86769231 -14.70153846 5.86769231 -11.625 2.0625 C-7.32198817 -1.31843787 -5.37649402 -1.27577824 0 0 Z " fill="#060703" transform="translate(188,205)"/>
<path d="M0 0 C0.5775 0.37125 1.155 0.7425 1.75 1.125 C-1.78411321 3.24546792 -5.19393835 3.65699289 -9.25 4.125 C-4.06343284 -1.58022388 -4.06343284 -1.58022388 0 0 Z " fill="#A4AF71" transform="translate(111.25,106.875)"/>
</svg>
